<?xml version="1.0" encoding="UTF-8" standalone="no"?>
<!DOCTYPE svg PUBLIC "-//W3C//DTD SVG 1.1//EN" "http://www.w3.org/Graphics/SVG/1.1/DTD/svg11.dtd">
<svg width="100%" height="100%" viewBox="0 0 23622 23622" version="1.1" xmlns="http://www.w3.org/2000/svg" xmlns:xlink="http://www.w3.org/1999/xlink" xml:space="preserve" xmlns:serif="http://www.serif.com/" style="fill-rule:evenodd;clip-rule:evenodd;stroke-linejoin:round;stroke-miterlimit:2;">
    <path d="M19187.7,21448C19187.7,21349.9 19149.7,21269.6 19073.9,21207C18998,21144.5 18863.7,21088.5 18670.8,21038.9C18394.5,20968.8 18181.3,20876.9 18031.4,20763.2C17881.4,20649.4 17806.5,20500.9 17806.5,20317.6C17806.5,20127.9 17888.8,19971.6 18053.4,19848.7C18218.1,19725.8 18429.7,19664.3 18688.5,19664.3C18966,19664.3 19188,19732.5 19354.4,19868.9C19520.8,20005.3 19601,20173.7 19595.2,20374.2L19591.6,20383.9L19178.8,20383.9C19178.8,20260 19133.9,20161.3 19043.9,20088C18953.9,20014.7 18834.3,19978 18684.9,19978C18540.3,19978 18428.9,20009.3 18350.7,20071.8C18272.5,20134.4 18233.4,20215.2 18233.4,20314.4C18233.4,20405 18276.3,20479.6 18362.1,20538.4C18448,20597.1 18590.3,20652.9 18789,20705.7C19058.3,20774.7 19263.5,20868.8 19404.6,20987.9C19545.8,21107.1 19616.3,21259.3 19616.3,21444.8C19616.3,21639.9 19532.8,21795.7 19365.8,21912.1C19198.8,22028.5 18979.5,22086.8 18707.9,22086.8C18446.8,22086.8 18219.2,22023.1 18025.2,21895.9C17831.2,21768.7 17737.1,21589.2 17743,21357.4L17746.5,21347.7L18159.3,21347.7C18159.3,21489 18212.5,21595.4 18318.9,21667.1C18425.3,21738.8 18555,21774.7 18707.9,21774.7C18859.6,21774.7 18977.5,21745.3 19061.5,21686.5C19145.6,21627.8 19187.7,21548.3 19187.7,21448ZM6009.62,20013.6L5215.83,20013.6L5215.83,22052.8L4787.18,22052.8L4787.18,20013.6L4005.73,20013.6L4005.73,19698.3L6009.62,19698.3L6009.62,20013.6ZM16753.9,22052.8L16325.2,22052.8L16325.2,19698.3L16753.9,19698.3L16753.9,22052.8ZM8847.38,22052.8L8418.73,22052.8L8418.73,21048.6L7270.38,21048.6L7270.38,22052.8L6841.73,22052.8L6841.73,19698.3L7270.38,19698.3L7270.38,20733.2L8418.73,20733.2L8418.73,19698.3L8847.38,19698.3L8847.38,22052.8ZM10716.7,20843.2L11335.9,19698.3L11813.9,19698.3L10923.1,21229.7L10923.1,22052.8L10496.2,22052.8L10496.2,21205.4L9619.52,19698.3L10097.6,19698.3L10716.7,20843.2ZM13942.6,21509.4L13953.1,21509.4L14695.8,19698.3L15242.6,19698.3L15242.6,22052.8L14814,22052.8L14814,20361.3L14803.4,20359.7L14096,22052.8L13801.4,22052.8L13081.7,20327.3L13071.1,20330.6L13071.1,22052.8L12642.5,22052.8L12642.5,19698.3L13205.2,19698.3L13942.6,21509.4Z" style="fill:white;fill-rule:nonzero;"/>
    <path d="M4044.5,5653.68C4044.51,5396.3 4181.85,5158.47 4404.78,5029.82C5706.85,4278.37 10160.4,1708.13 11461.8,957.098C11684.5,828.581 11958.8,828.501 12181.5,956.887C13483.4,1707.19 17938.9,4275.06 19242.2,5026.18C19465.4,5154.84 19602.9,5392.93 19602.8,5650.59C19602.2,7155.32 19600,12300.9 19599.4,13804.2C19599.3,14061.3 19462.1,14299 19239.4,14427.6C17938,15179.5 13484,17752.7 12181.9,18505C11959,18633.8 11684.2,18633.9 11461.3,18505.1C10159.2,17753.2 5706.05,15181.6 4404.27,14429.8C4181.42,14301.1 4044.14,14063.3 4044.16,13806C4044.22,12302.3 4044.43,7157.49 4044.5,5653.68ZM18233.9,8180.87L18237.9,13428.6L13686.4,16058.5L18233.9,8180.87ZM5409.13,8179.03L9952.12,16053.5L5409.72,13430.7L5409.13,8179.03ZM5909.01,6314.64L11138.8,15372.9L11138.5,6314.92L5909.01,6314.64ZM12504.4,6314.93L17734.3,6315.12L12504.2,15372.6L12504.4,6314.93ZM11821.6,2325.03L16368.3,4949.07L7277.45,4948.95L11821.6,2325.03Z" style="fill:white;"/>
</svg>
