<?xml version="1.0" encoding="UTF-8" standalone="no"?>
<svg xmlns="http://www.w3.org/2000/svg" width="100" height="100" viewBox="0 0 100 100" fill="none">
<g transform="translate(50 50) scale(1.4286) translate(-50 -50)">
    <g fill="none" stroke="#e5e5e5" stroke-width="4.900" stroke-linecap="round" stroke-linejoin="round">
      <rect x="32" y="32" width="36" height="36" rx="4" />
      <line x1="40" y1="32" x2="40" y2="22" />
      <line x1="50" y1="32" x2="50" y2="22" />
      <line x1="60" y1="32" x2="60" y2="22" />
      <line x1="40" y1="68" x2="40" y2="78" />
      <line x1="50" y1="68" x2="50" y2="78" />
      <line x1="60" y1="68" x2="60" y2="78" />
      <line x1="32" y1="40" x2="22" y2="40" />
      <line x1="32" y1="50" x2="22" y2="50" />
      <line x1="32" y1="60" x2="22" y2="60" />
      <line x1="68" y1="40" x2="78" y2="40" />
      <line x1="68" y1="50" x2="78" y2="50" />
      <line x1="68" y1="60" x2="78" y2="60" />
    </g>
    <rect x="43" y="43" width="14" height="14" rx="2" fill="#4f8cff" />
</g>
</svg>
