<?xml version="1.0" encoding="UTF-8" standalone="no"?>
<!-- Uploaded to: SVG Repo, www.svgrepo.com, Generator: SVG Repo Mixer Tools -->

<svg
   width="800px"
   height="800px"
   viewBox="0 0 16 16"
   fill="#000000"
   class="bi bi-display"
   version="1.1"
   id="svg1"
   sodipodi:docname="Display.svg"
   inkscape:version="1.4 (86a8ad7, 2024-10-11)"
   xmlns:inkscape="http://www.inkscape.org/namespaces/inkscape"
   xmlns:sodipodi="http://sodipodi.sourceforge.net/DTD/sodipodi-0.dtd"
   xmlns="http://www.w3.org/2000/svg"
   xmlns:svg="http://www.w3.org/2000/svg">
  <defs
     id="defs1" />
  <sodipodi:namedview
     id="namedview1"
     pagecolor="#ffffff"
     bordercolor="#000000"
     borderopacity="0.25"
     inkscape:showpageshadow="2"
     inkscape:pageopacity="0.0"
     inkscape:pagecheckerboard="0"
     inkscape:deskcolor="#d1d1d1"
     inkscape:zoom="1.01875"
     inkscape:cx="247.85276"
     inkscape:cy="383.31288"
     inkscape:window-width="1920"
     inkscape:window-height="1017"
     inkscape:window-x="1912"
     inkscape:window-y="-8"
     inkscape:window-maximized="1"
     inkscape:current-layer="svg1" />
  <path
     d="M0 4s0-2 2-2h12s2 0 2 2v6s0 2-2 2h-4c0 .667.083 1.167.25 1.5H11a.5.5 0 0 1 0 1H5a.5.5 0 0 1 0-1h.75c.167-.333.25-.833.25-1.5H2s-2 0-2-2V4zm1.398-.855a.758.758 0 0 0-.254.302A1.46 1.46 0 0 0 1 4.01V10c0 .325.078.502.145.602.07.105.17.188.302.254a1.464 1.464 0 0 0 .538.143L2.01 11H14c.325 0 .502-.078.602-.145a.758.758 0 0 0 .254-.302 1.464 1.464 0 0 0 .143-.538L15 9.99V4c0-.325-.078-.502-.145-.602a.757.757 0 0 0-.302-.254A1.46 1.46 0 0 0 13.99 3H2c-.325 0-.502.078-.602.145z"
     id="path1"
     style="fill:#1a1a1a;fill-opacity:1" />
</svg>
